<?xml version="1.0" encoding="iso-8859-1"?>
<!-- Generator: Adobe Illustrator 19.0.0, SVG Export Plug-In . SVG Version: 6.00 Build 0)  -->
<svg version="1.1" id="Layer_1" xmlns="http://www.w3.org/2000/svg" xmlns:xlink="http://www.w3.org/1999/xlink" x="0px" y="0px"
	 viewBox="0 0 512 512" style="enable-background:new 0 0 512 512;" xml:space="preserve">
<polygon style="fill:#ABCDE0;" points="61.396,0 61.396,512 450.604,512 450.604,106.163 344.441,0 "/>
<rect x="61.396" style="fill:#D6F1FF;" width="194.607" height="511.997"/>
<g>
	<rect x="113.546" y="159.479" style="fill:#4386C9;" width="284.915" height="31.346"/>
	<rect x="314.746" y="213.383" style="fill:#4386C9;" width="83.715" height="31.346"/>
	<path style="fill:#4386C9;" d="M398.458,465.698c-13.743,0-21.39-4.261-26.971-7.373c-4.071-2.268-6.115-3.407-11.713-3.407
		s-7.641,1.139-11.713,3.407c-5.583,3.112-13.228,7.373-26.972,7.373c-13.742,0-21.387-4.261-26.97-7.373
		c-4.07-2.268-6.112-3.407-11.71-3.407v-31.346c13.743,0,21.388,4.261,26.971,7.373c4.07,2.268,6.112,3.407,11.709,3.407
		c5.599,0,7.642-1.139,11.714-3.407c5.583-3.112,13.228-7.373,26.971-7.373s21.39,4.261,26.971,7.373
		c4.071,2.268,6.115,3.407,11.713,3.407L398.458,465.698L398.458,465.698z"/>
	<rect x="113.546" y="213.383" style="fill:#4386C9;" width="168.872" height="31.346"/>
	<rect x="113.546" y="267.278" style="fill:#4386C9;" width="284.915" height="31.346"/>
	<rect x="113.546" y="321.172" style="fill:#4386C9;" width="168.872" height="31.346"/>
	<rect x="113.546" y="428.961" style="fill:#4386C9;" width="114.967" height="31.346"/>
	<rect x="239.829" y="51.69" style="fill:#4386C9;" width="42.577" height="31.346"/>
	<rect x="113.546" y="51.69" style="fill:#4386C9;" width="93.955" height="31.346"/>
	<polygon style="fill:#4386C9;" points="344.441,0 344.441,106.163 450.604,106.163 	"/>
</g>
<g>
</g>
<g>
</g>
<g>
</g>
<g>
</g>
<g>
</g>
<g>
</g>
<g>
</g>
<g>
</g>
<g>
</g>
<g>
</g>
<g>
</g>
<g>
</g>
<g>
</g>
<g>
</g>
<g>
</g>
</svg>
