<?xml version="1.0" encoding="iso-8859-1"?>
<!-- Generator: Adobe Illustrator 16.0.0, SVG Export Plug-In . SVG Version: 6.00 Build 0)  -->
<!DOCTYPE svg PUBLIC "-//W3C//DTD SVG 1.1//EN" "http://www.w3.org/Graphics/SVG/1.1/DTD/svg11.dtd">
<svg version="1.1" id="Capa_1" xmlns="http://www.w3.org/2000/svg" xmlns:xlink="http://www.w3.org/1999/xlink" x="0px" y="0px"
	 width="50.046px" height="50.046px" viewBox="0 0 50.046 50.046" style="enable-background:new 0 0 50.046 50.046;"
	 xml:space="preserve">
<g>
	<path d="M48.511,27.604L26.717,2.019c-2.179-2.558-5.873-2.705-8.249-0.329L1.69,18.469c-2.376,2.376-2.228,6.069,0.33,8.248
		l25.583,21.794c2.56,2.18,6.56,2.02,8.936-0.355l11.615-11.616C50.529,34.162,50.69,30.162,48.511,27.604z M34.676,39.238
		c-2.521,0-4.562-2.043-4.562-4.562c0-2.519,2.043-4.562,4.562-4.562c2.519,0,4.562,2.043,4.562,4.562
		C39.238,37.195,37.195,39.238,34.676,39.238z"/>
</g>
<g>
</g>
<g>
</g>
<g>
</g>
<g>
</g>
<g>
</g>
<g>
</g>
<g>
</g>
<g>
</g>
<g>
</g>
<g>
</g>
<g>
</g>
<g>
</g>
<g>
</g>
<g>
</g>
<g>
</g>
</svg>
