<?xml version="1.0" encoding="iso-8859-1"?>
<!-- Generator: Adobe Illustrator 16.0.0, SVG Export Plug-In . SVG Version: 6.00 Build 0)  -->
<!DOCTYPE svg PUBLIC "-//W3C//DTD SVG 1.1//EN" "http://www.w3.org/Graphics/SVG/1.1/DTD/svg11.dtd">
<svg version="1.1" id="Capa_1" xmlns="http://www.w3.org/2000/svg" xmlns:xlink="http://www.w3.org/1999/xlink" x="0px" y="0px"
	 width="201.837px" height="201.838px" viewBox="0 0 201.837 201.838" style="enable-background:new 0 0 201.837 201.838;"
	 xml:space="preserve">
<g>
	<g>
		<path d="M167.416,158.245c-5.81-2.18-8.196-3.629-8.196-5.863c0-1.918,1.425-3.843,5.87-3.843c4.92,0,8.062,1.583,9.84,2.339
			l1.985-7.722c-2.253-1.096-5.334-2.04-9.907-2.259v-6.01h-6.698v6.479c-7.307,1.438-11.539,6.162-11.539,12.166
			c0,6.625,4.987,10.041,12.294,12.52c5.061,1.687,7.24,3.337,7.24,5.931c0,2.734-2.667,4.244-6.564,4.244
			c-4.433,0-8.464-1.443-11.325-3.002l-2.052,7.989c2.594,1.498,7.032,2.728,11.611,2.935v6.491h6.698v-6.966
			c7.855-1.37,12.166-6.564,12.166-12.636C178.827,164.876,175.55,161.107,167.416,158.245z"/>
		<path d="M163.597,124.518c-20.186,0-36.724,15.716-38.105,35.555l-22.609-7.466v-31.334c0-0.287-0.061-0.543-0.161-0.779
			c32.178-0.963,58.069-27.377,58.069-59.784c0-33.009-26.854-59.868-59.872-59.868c-33.015,0-59.872,26.859-59.872,59.868
			c0,32.407,25.894,58.821,58.069,59.784c-0.106,0.236-0.161,0.492-0.161,0.779v31.334l-22.609,7.466
			c-1.385-19.839-17.926-35.555-38.103-35.555C17.159,124.518,0,141.671,0,162.757c0,21.088,17.153,38.24,38.243,38.24
			c20.6,0,37.406-16.386,38.169-36.797l24.5-8.11l24.512,8.11c0.768,20.411,17.562,36.797,38.173,36.797
			c21.081,0,38.24-17.152,38.24-38.24C201.837,141.671,184.678,124.518,163.597,124.518z M46.278,60.709
			c0-30.129,24.512-54.632,54.635-54.632c30.126,0,54.635,24.503,54.635,54.632c0,30.117-24.509,54.645-54.635,54.645
			C70.79,115.354,46.278,90.826,46.278,60.709z M38.228,195.761c-18.201,0-33.003-14.809-33.003-33.004
			c0-18.2,14.809-33.009,33.003-33.009c18.197,0,33.012,14.809,33.012,33.009C71.24,180.952,56.431,195.761,38.228,195.761z
			 M163.597,195.761c-18.2,0-33.009-14.809-33.009-33.004c0-18.2,14.809-33.009,33.009-33.009c18.201,0,33.004,14.809,33.004,33.009
			C196.601,180.952,181.798,195.761,163.597,195.761z"/>
		<path d="M38.228,146.213c3.093,0,5.602-3.58,5.602-6.673c0-3.088-2.509-5.59-5.602-5.59c-3.084,0-5.599,2.502-5.599,5.59
			C32.629,142.633,35.144,146.213,38.228,146.213z"/>
		<path d="M47.033,151.985c-0.006-0.023-0.024-0.036-0.024-0.049c-0.03-0.127-0.094-0.219-0.149-0.334
			c-0.058-0.104-0.106-0.201-0.173-0.305c-0.021-0.019-0.021-0.037-0.034-0.055c-0.149-0.171-3.702-4.146-8.415-4.146
			c-4.71,0-8.263,3.976-8.412,4.146c-0.012,0.018-0.018,0.036-0.04,0.061c-0.067,0.098-0.116,0.183-0.167,0.299
			c-0.049,0.115-0.125,0.207-0.155,0.334c0,0.013-0.018,0.025-0.024,0.049l-3.541,14.164c-0.237,0.938,0.335,1.912,1.288,2.143
			c0.146,0.049,0.289,0.062,0.433,0.062c0.792,0,1.513-0.548,1.714-1.34l3.404-13.634l0.898,8.318l-5.806,11.344
			c0,0.42,2.365,1.389,5.806,1.912l-1.147,14.212c-0.101,1.229,0.81,2.29,2.027,2.394c0.055,0,0.125,0.006,0.18,0.006
			c1.148,0,2.107-0.877,2.201-2.034l1.148-14.224c0.061,0,0.125,0,0.186,0c0.07,0,0.131,0,0.194,0l1.148,14.224
			c0.091,1.157,1.054,2.034,2.201,2.034c0.055,0,0.125-0.006,0.18-0.006c1.224-0.104,2.125-1.164,2.028-2.394l-1.148-14.212
			c3.435-0.523,5.806-1.486,5.806-1.912l-5.806-11.338l0.898-8.324l3.404,13.634c0.201,0.792,0.922,1.34,1.714,1.34
			c0.143,0,0.286-0.013,0.433-0.062c0.947-0.23,1.525-1.193,1.288-2.143L47.033,151.985z"/>
		<path d="M100.913,33.725c4.969,0,9.009-5.782,9.009-10.75c0-4.98-4.034-9.015-9.009-9.015s-9.015,4.034-9.015,9.015
			C91.897,27.943,95.938,33.725,100.913,33.725z"/>
		<path d="M102.639,71.654l2.563,31.874c0.18,2.226,2.052,3.922,4.259,3.922c0.119,0,0.231,0,0.348-0.007
			c2.359-0.188,4.106-2.25,3.918-4.6l-2.837-35.275V43.252c0.355,0.1,0.679,0.201,0.982,0.28l2.604,23.376
			c0.207,1.82,1.741,3.169,3.532,3.169c0.134,0,0.268,0,0.396-0.021c1.954-0.216,3.367-1.97,3.148-3.94l-2.856-25.645
			c-0.019-0.176-0.115-0.319-0.152-0.48c-0.066-0.256-0.121-0.512-0.243-0.755c-0.098-0.173-0.231-0.317-0.348-0.472
			c-0.151-0.213-0.304-0.426-0.511-0.605c-0.165-0.131-0.354-0.213-0.53-0.32c-0.183-0.11-0.335-0.255-0.542-0.323
			c-0.322-0.131-7.495-2.694-14.084-3.023l-0.91,1.809h-0.021l2.402,18.685l-2.844,4.984l-2.85-4.984l2.402-18.685h-0.028
			l-0.904-1.809c-6.589,0.335-13.762,2.898-14.084,3.023c-0.213,0.067-0.362,0.226-0.542,0.323c-0.177,0.119-0.369,0.189-0.518,0.32
			c-0.213,0.186-0.362,0.398-0.524,0.618c-0.112,0.149-0.243,0.286-0.338,0.459c-0.125,0.231-0.18,0.5-0.25,0.767
			c-0.037,0.155-0.131,0.292-0.149,0.469l-2.856,25.645c-0.219,1.964,1.19,3.724,3.148,3.94c0.131,0.021,0.262,0.021,0.399,0.021
			c1.79,0,3.331-1.349,3.538-3.169l2.6-23.376c0.298-0.079,0.636-0.18,0.983-0.28v24.316l-2.837,35.269
			c-0.186,2.351,1.559,4.406,3.918,4.601c0.116,0.006,0.228,0.006,0.347,0.006c2.207,0,4.08-1.689,4.259-3.921l2.563-31.874
			c0.53,0.229,1.108,0.368,1.726,0.368C101.537,72.017,102.109,71.883,102.639,71.654z"/>
	</g>
</g>
<g>
</g>
<g>
</g>
<g>
</g>
<g>
</g>
<g>
</g>
<g>
</g>
<g>
</g>
<g>
</g>
<g>
</g>
<g>
</g>
<g>
</g>
<g>
</g>
<g>
</g>
<g>
</g>
<g>
</g>
</svg>
