<?xml version="1.0" encoding="iso-8859-1"?>
<!-- Generator: Adobe Illustrator 18.0.0, SVG Export Plug-In . SVG Version: 6.00 Build 0)  -->
<!DOCTYPE svg PUBLIC "-//W3C//DTD SVG 1.1//EN" "http://www.w3.org/Graphics/SVG/1.1/DTD/svg11.dtd">
<svg version="1.1" id="Capa_1" xmlns="http://www.w3.org/2000/svg" xmlns:xlink="http://www.w3.org/1999/xlink" x="0px" y="0px"
	 viewBox="0 0 483.52 483.52" style="enable-background:new 0 0 483.52 483.52;" xml:space="preserve">
<g>
	<path style="fill:#231F20;" d="M401.715,324.325h-1.09l-9.842-248.718c-0.047-13.106-7.384-24.796-19.172-30.531
		c-0.128-0.062-48.915-19.668-48.915-19.668c0.814-6.891-1.101-13.529-5.344-18.384c-4.042-4.624-9.777-7.179-15.686-7.015H181.853
		c-5.943-0.174-11.644,2.393-15.686,7.016c-4.374,5.004-6.265,11.904-5.265,18.937c0,0-48.847,19.044-48.993,19.115
		C100.12,50.81,92.783,62.501,92.737,75.607l-9.841,248.718h-1.09c-3.313,0-6,2.687-6,6v35.242c0,3.314,2.687,6,6,6h54.149V477.52
		c0,3.314,2.686,6,6,6h199.584c3.314,0,6-2.687,6-6V371.567h54.178c3.314,0,6-2.686,6-6v-35.242
		C407.715,327.011,405.029,324.325,401.715,324.325z M301.951,12.005c2.358-0.072,4.68,0.987,6.366,2.917
		c2.168,2.479,3.005,5.965,2.343,9.907l-6.993,45.959l-28.236,0.042l22.931-37.181c0.02-0.03,0.038-0.062,0.057-0.092
		c4.116-6.957,4.71-14.858,1.732-21.548C300.151,12.008,301.886,12.007,301.951,12.005z M281.934,12.001
		c2.882,0,5.376,1.475,6.843,4.048c1.322,2.319,1.556,5.143,0.77,7.972h-95.294c-0.786-2.829-0.552-5.653,0.77-7.973
		c1.467-2.572,3.961-4.047,6.841-4.047C201.864,12.001,281.677,12.001,281.934,12.001z M282.804,36.02L241.9,102.141L200.993,36.02
		H282.804z M262.92,158.815l-68.613-46.905l25.259-23.016L262.92,158.815z M248.959,113.527l15.272-24.634l25.26,23.016
		l-29.171,19.941L248.959,113.527z M175.202,14.921c1.687-1.93,4.021-2.989,6.367-2.917c0.065,0.002,2.079,0.003,2.079,0.003
		c-2.977,6.689-2.384,14.59,1.731,21.547c0.019,0.032,0.037,0.063,0.056,0.094l22.931,37.181l-28.514-0.042l-7.007-46.052
		C172.199,20.886,173.035,17.401,175.202,14.921z M87.805,336.325h43.537l-15.823,23.242H87.805V336.325z M147.953,471.52V145.879
		c0-3.313-2.687-6-6-6c-3.314,0-6,2.687-6,6v84.736h-11.758c-3.313,0-6,2.687-6,6c0,3.313,2.687,6,6,6h11.758v81.709H94.904
		l9.828-248.356c0.003-0.079,0.005-0.158,0.005-0.237c0-8.449,4.674-16,12.216-19.763l45.793-17.846l6.019,39.561
		c0.445,2.928,2.961,5.093,5.923,5.098l33.718,0.05l-27.786,25.317c-1.356,1.235-2.072,3.023-1.944,4.852
		c0.127,1.83,1.085,3.501,2.599,4.536l95.679,65.408V471.52H147.953z M335.537,471.52h-46.584V179.739
		c0-1.117-0.312-2.212-0.9-3.162l-21.403-34.519l35.875-24.523c1.515-1.035,2.472-2.706,2.6-4.536
		c0.128-1.83-0.589-3.617-1.944-4.852L275.394,82.83l33.439-0.05c2.962-0.004,5.478-2.169,5.923-5.098l6.099-40.083l45.687,18.355
		c7.557,3.758,12.242,11.317,12.242,19.776c0,0.079,0.002,0.158,0.005,0.237l9.827,248.356h-41.078v-81.709h9.826
		c3.313,0,6-2.687,6-6c0-3.313-2.687-6-6-6h-9.826v-84.736c0-3.313-2.686-6-6-6c-3.313,0-6,2.687-6,6V471.52z M395.715,359.567
		h-27.714l-15.823-23.242h43.537V359.567z"/>
	<path style="fill:#231F20;" d="M258.76,189.69c-4.33,0-7.854,3.522-7.854,7.852c0,4.331,3.523,7.854,7.854,7.854
		c4.33,0,7.853-3.523,7.853-7.854C266.614,193.212,263.09,189.69,258.76,189.69z"/>
	<path style="fill:#231F20;" d="M258.76,229.782c-4.33,0-7.854,3.522-7.854,7.852c0,4.331,3.523,7.854,7.854,7.854
		c4.33,0,7.853-3.523,7.853-7.854C266.614,233.304,263.09,229.782,258.76,229.782z"/>
	<path style="fill:#231F20;" d="M258.76,269.874c-4.33,0-7.854,3.523-7.854,7.854c0,4.33,3.523,7.852,7.854,7.852
		c4.33,0,7.853-3.522,7.853-7.852C266.614,273.397,263.09,269.874,258.76,269.874z"/>
	<path style="fill:#231F20;" d="M258.761,325.67c4.329,0,7.851-3.523,7.851-7.854c0-4.331-3.522-7.853-7.851-7.853
		c-4.33,0-7.854,3.523-7.854,7.853C250.908,322.148,254.431,325.67,258.761,325.67z"/>
	<path style="fill:#231F20;" d="M258.76,350.055c-4.33,0-7.854,3.523-7.854,7.853c0,4.331,3.523,7.854,7.854,7.854
		c4.33,0,7.853-3.523,7.853-7.854C266.614,353.578,263.09,350.055,258.76,350.055z"/>
	<path style="fill:#231F20;" d="M218.76,189.69c-4.331,0-7.854,3.522-7.854,7.852c0,4.331,3.523,7.854,7.854,7.854
		c4.331,0,7.853-3.523,7.853-7.854C226.614,193.212,223.091,189.69,218.76,189.69z"/>
	<path style="fill:#231F20;" d="M218.76,229.782c-4.331,0-7.854,3.522-7.854,7.852c0,4.331,3.523,7.854,7.854,7.854
		c4.331,0,7.853-3.523,7.853-7.854C226.614,233.304,223.091,229.782,218.76,229.782z"/>
	<path style="fill:#231F20;" d="M218.76,269.874c-4.331,0-7.854,3.523-7.854,7.854c0,4.33,3.523,7.852,7.854,7.852
		c4.331,0,7.853-3.522,7.853-7.852C226.614,273.397,223.091,269.874,218.76,269.874z"/>
	<path style="fill:#231F20;" d="M218.761,325.67c4.33,0,7.851-3.523,7.851-7.854c0-4.331-3.522-7.853-7.851-7.853
		c-4.331,0-7.854,3.523-7.854,7.853C210.908,322.148,214.43,325.67,218.761,325.67z"/>
	<path style="fill:#231F20;" d="M218.76,350.055c-4.331,0-7.854,3.523-7.854,7.853c0,4.331,3.523,7.854,7.854,7.854
		c4.331,0,7.853-3.523,7.853-7.854C226.614,353.578,223.091,350.055,218.76,350.055z"/>
</g>
<g>
</g>
<g>
</g>
<g>
</g>
<g>
</g>
<g>
</g>
<g>
</g>
<g>
</g>
<g>
</g>
<g>
</g>
<g>
</g>
<g>
</g>
<g>
</g>
<g>
</g>
<g>
</g>
<g>
</g>
</svg>
