<?xml version="1.0" encoding="iso-8859-1"?>
<!-- Generator: Adobe Illustrator 18.0.0, SVG Export Plug-In . SVG Version: 6.00 Build 0)  -->
<!DOCTYPE svg PUBLIC "-//W3C//DTD SVG 1.1//EN" "http://www.w3.org/Graphics/SVG/1.1/DTD/svg11.dtd">
<svg xmlns="http://www.w3.org/2000/svg" xmlns:xlink="http://www.w3.org/1999/xlink" version="1.1" id="Capa_1" x="0px" y="0px" viewBox="0 0 350 350" style="enable-background:new 0 0 350 350;" xml:space="preserve" width="512px" height="512px">
<g>
	<g>
		<path d="M175,0C103.237,0,44.854,58.383,44.854,130.145c0,70.168,121.193,212.104,126.353,218.112    c0.949,1.107,2.335,1.743,3.793,1.743s2.844-0.636,3.793-1.743c5.159-6.008,126.353-147.944,126.353-218.112    C305.146,58.383,246.763,0,175,0z M175,212.713c-46.869,0-85-38.131-85-85s38.131-85,85-85s85,38.131,85,85    S221.869,212.713,175,212.713z" fill="#D80027"/>
	</g>
	<path d="M184.068,167.796v9.558c0,0.991-0.803,1.794-1.795,1.794h-13.758c-0.99,0-1.793-0.804-1.793-1.794v-9.909   c-7.25-1.741-13.952-5.456-18.559-10.326l-2.674-2.824c-0.326-0.346-0.503-0.807-0.49-1.282s0.215-0.927,0.56-1.254l9.992-9.456   c0.721-0.68,1.856-0.647,2.536,0.07l2.672,2.824c3.397,3.589,9.432,6.001,15.013,6.001c4.413,0,11.882-1.165,11.882-5.535   c0.032-3.776-1.604-5.292-13.163-8.794c-9.887-2.995-26.432-8.006-26.432-26.633c0-10.433,7.112-18.732,18.663-21.929V78.072   c0-0.991,0.803-1.795,1.793-1.795h13.758c0.992,0,1.795,0.804,1.795,1.795v9.287c5.973,0.881,11.771,2.938,16.113,5.742   l3.265,2.109c0.832,0.538,1.071,1.649,0.533,2.481l-7.465,11.554c-0.537,0.832-1.647,1.071-2.479,0.534l-3.267-2.11   c-3.088-1.995-8.517-3.442-12.912-3.442c-4.624,0-12.452,1.266-12.452,6.009c0,4.461,1.852,6.32,14.114,10.033   c10.204,3.091,25.628,7.761,25.48,25.465C204.999,156.975,197.023,165.326,184.068,167.796z" fill="#D80027"/>
</g>
<g>
</g>
<g>
</g>
<g>
</g>
<g>
</g>
<g>
</g>
<g>
</g>
<g>
</g>
<g>
</g>
<g>
</g>
<g>
</g>
<g>
</g>
<g>
</g>
<g>
</g>
<g>
</g>
<g>
</g>
</svg>
