<?xml version="1.0" encoding="iso-8859-1"?>
<!-- Generator: Adobe Illustrator 16.0.0, SVG Export Plug-In . SVG Version: 6.00 Build 0)  -->
<!DOCTYPE svg PUBLIC "-//W3C//DTD SVG 1.1//EN" "http://www.w3.org/Graphics/SVG/1.1/DTD/svg11.dtd">
<svg xmlns="http://www.w3.org/2000/svg" xmlns:xlink="http://www.w3.org/1999/xlink" version="1.1" id="Capa_1" x="0px" y="0px" width="512px" height="512px" viewBox="0 0 413.667 413.667" style="enable-background:new 0 0 413.667 413.667;" xml:space="preserve">
<g>
	<g>
		<path d="M276.75,116.578H136.92C61.303,116.578,0,177.88,0,253.498c0,75.617,14.16,136.918,89.775,136.918h234.117    c75.617,0,89.775-61.301,89.775-136.918C413.668,177.88,352.369,116.578,276.75,116.578z" fill="#FFFFFF"/>
		<path d="M395.762,106.168c-30.635-28.87-70.69-44.771-112.795-44.771h-42.67l10.43-13.193c5.275-6.672,4.146-16.356-2.528-21.632    c-6.671-5.274-16.355-4.145-21.632,2.529L206.834,54.06l-19.732-24.958c-5.275-6.672-14.959-7.805-21.631-2.529    c-6.674,5.275-7.805,14.96-2.529,21.632l10.432,13.193h-42.672c-42.104,0-82.16,15.9-112.795,44.771    c-6.189,5.834-6.479,15.58-0.645,21.77c5.834,6.191,15.576,6.478,21.77,0.646c24.896-23.464,57.451-36.386,91.67-36.386h152.266    c34.22,0,66.773,12.922,91.67,36.386c2.976,2.804,6.771,4.193,10.562,4.193c4.094,0,8.18-1.623,11.211-4.839    C402.24,121.748,401.953,112.002,395.762,106.168z" fill="#FFFFFF"/>
	</g>
</g>
<g>
</g>
<g>
</g>
<g>
</g>
<g>
</g>
<g>
</g>
<g>
</g>
<g>
</g>
<g>
</g>
<g>
</g>
<g>
</g>
<g>
</g>
<g>
</g>
<g>
</g>
<g>
</g>
<g>
</g>
</svg>
