<?xml version="1.0" encoding="iso-8859-1"?>
<!-- Generator: Adobe Illustrator 19.0.0, SVG Export Plug-In . SVG Version: 6.00 Build 0)  -->
<svg version="1.1" id="Capa_1" xmlns="http://www.w3.org/2000/svg" xmlns:xlink="http://www.w3.org/1999/xlink" x="0px" y="0px"
	 viewBox="0 0 296.423 296.423" style="enable-background:new 0 0 296.423 296.423;" xml:space="preserve">
<g>
	<path d="M267.101,78.705L252.094,6.376c-0.89-4.289-5.07-7.064-9.359-6.227c-31.401,6.104-63.197,9.198-94.507,9.198
		c-31.31,0-63.113-3.095-94.527-9.199c-4.289-0.831-8.469,1.939-9.358,6.228l-5.356,25.811c-3.218,15.506-6.437,31.012-9.65,46.519
		c-0.435,2.092-0.013,4.271,1.169,6.051c1.183,1.779,2.861,3.013,4.958,3.424c2.028,0.397,3.923,0.78,5.923,1.156v174.087
		c0,4.418,3.582,8,8,8s8-3.582,8-8v-17.212h12v17.212c0,4.418,3.582,8,8,8c4.418,0,8-3.582,8-8v-17.212h11v17.212
		c0,4.418,3.582,8,8,8c4.418,0,8-3.582,8-8v-17.212h12v17.212c0,4.418,3.582,8,8,8s8-3.582,8-8V99.163
		c3,0.033,5.012,0.053,7.514,0.053c3.158,0,6.486-0.036,9.486-0.09v189.297c0,4.418,3.582,8,8,8s8-3.582,8-8v-19.212h12v19.212
		c0,4.418,3.582,8,8,8s8-3.582,8-8v-19.212h11v19.212c0,4.418,3.582,8,8,8s8-3.582,8-8v-19.212h12v19.212c0,4.418,3.582,8,8,8
		s8-3.582,8-8V88.957c2-0.258,2.895-0.51,4.257-0.777c2.097-0.412,4.026-1.645,5.207-3.425
		C267.031,82.976,267.536,80.797,267.101,78.705z M103.216,201.785l-23.925,7.293c-1.518,0.46-3.262,0.46-4.775,0l-17.131-5.167
		v-16.722l19.498,5.873l24.092-7.293c1.516-0.462,3.01-0.462,4.526,0l18.885,5.775v16.721L103.216,201.785z M124.385,167.265
		l-21.168-6.48l-23.925,7.293c-1.518,0.46-3.262,0.46-4.775,0l-17.131-5.167v-16.722l19.498,5.873l24.092-7.293
		c1.516-0.462,3.01-0.461,4.526,0l18.885,5.775V167.265z M240.385,231.354l-18.169-5.569l-23.925,7.293
		c-1.518,0.461-3.262,0.46-4.775,0l-20.131-6.078v-16.722l22.498,6.784l24.092-7.293c1.516-0.462,3.01-0.461,4.526,0l15.885,4.863
		V231.354z M240.385,190.354l-18.169-5.569l-23.925,7.293c-1.518,0.461-3.262,0.46-4.775,0l-20.131-6.078v-16.722l22.498,6.784
		l24.092-7.293c1.516-0.462,3.01-0.462,4.526,0l15.885,4.863V190.354z"/>
</g>
<g>
</g>
<g>
</g>
<g>
</g>
<g>
</g>
<g>
</g>
<g>
</g>
<g>
</g>
<g>
</g>
<g>
</g>
<g>
</g>
<g>
</g>
<g>
</g>
<g>
</g>
<g>
</g>
<g>
</g>
</svg>
