<?xml version="1.0" encoding="iso-8859-1"?>
<!-- Generator: Adobe Illustrator 18.0.0, SVG Export Plug-In . SVG Version: 6.00 Build 0)  -->
<!DOCTYPE svg PUBLIC "-//W3C//DTD SVG 1.1//EN" "http://www.w3.org/Graphics/SVG/1.1/DTD/svg11.dtd">
<svg version="1.1" id="Capa_1" xmlns="http://www.w3.org/2000/svg" xmlns:xlink="http://www.w3.org/1999/xlink" x="0px" y="0px"
	 viewBox="0 0 296.531 296.531" style="enable-background:new 0 0 296.531 296.531;" xml:space="preserve">
<g>
	<polygon points="168.86,151.016 146.722,113.045 124.581,151.016 146.722,188.341 	"/>
	<polygon points="103.753,151.016 81.614,113.046 59.476,151.016 81.614,188.34 	"/>
	<polygon points="233.965,151.016 211.825,113.046 189.688,151.016 211.825,188.339 	"/>
	<path d="M47.362,266.041c0,15.825,12.765,28.7,28.455,28.7l145.113-0.001c15.57,0,28.238-12.874,28.238-28.699V157.677
		l-30.261,51.011c-1.483,2.502-4.177,4.035-7.085,4.035s-5.602-1.533-7.084-4.035l-25.465-42.936l-25.469,42.936
		c-1.484,2.502-4.177,4.035-7.084,4.035c-2.908,0-5.602-1.533-7.085-4.035l-25.47-42.937l-25.468,42.937
		c-1.484,2.502-4.177,4.035-7.085,4.035c-2.907,0-5.601-1.533-7.084-4.035l-27.168-45.801V266.041z M181.548,228.507
		c4.918,0,8.909,4.199,8.909,9.373c0,5.181-3.991,9.379-8.909,9.379c-4.922,0-8.912-4.198-8.912-9.379
		C172.636,232.706,176.626,228.507,181.548,228.507z M111.534,228.507c4.918,0,8.908,4.199,8.908,9.373
		c0,5.181-3.99,9.38-8.908,9.38c-4.922,0-8.913-4.199-8.913-9.38C102.621,232.706,106.612,228.507,111.534,228.507z"/>
	<path d="M272.983,13.149L228.288,2.503c-1.991-0.473-4.132-0.713-6.358-0.713c-12.017,0-24.797,6.88-30.39,16.358
		c-0.511,0.867-12.873,21.23-43.28,21.23c-30.255,0-42.562-20.054-43.07-20.907C99.604,9.104,86.89,2.306,74.957,2.306
		c-2.299,0-4.506,0.255-6.561,0.757L23.726,13.99C10.864,17.137,0,30.979,0,44.218v206.11c0,12.566,10.161,22.79,22.652,22.79h8.792
		c-0.363-2.307-0.556-4.669-0.556-7.077V139.268c0-4.549,3.688-8.237,8.237-8.237c4.491,0,8.137,3.598,8.228,8.068l27.146-46.555
		c1.476-2.531,4.186-4.088,7.115-4.088c2.931,0,5.641,1.557,7.116,4.088l25.437,43.627l25.438-43.627
		c1.476-2.531,4.186-4.088,7.116-4.088c2.93,0,5.64,1.557,7.115,4.088l25.438,43.627l25.434-43.627
		c1.476-2.531,4.186-4.088,7.115-4.088c2.932,0,5.641,1.557,7.116,4.087l30.229,51.841v-5.116c0-4.549,3.688-8.237,8.236-8.237
		c4.549,0,8.237,3.689,8.237,8.237v126.773c0,2.408-0.192,4.771-0.553,7.077h9.133c12.301,0,22.309-10.224,22.309-22.79V43.155
		C296.531,29.92,285.749,16.179,272.983,13.149z M43.579,94.875c-4.922,0-8.913-4.199-8.913-9.379c0-5.175,3.991-9.374,8.913-9.374
		c4.918,0,8.908,4.199,8.908,9.374C52.487,90.676,48.497,94.875,43.579,94.875z M111.534,94.875c-4.922,0-8.913-4.199-8.913-9.379
		c0-5.175,3.991-9.374,8.913-9.374c4.918,0,8.908,4.199,8.908,9.374C120.442,90.676,116.452,94.875,111.534,94.875z M181.548,94.875
		c-4.922,0-8.912-4.199-8.912-9.38c0-5.174,3.99-9.373,8.912-9.373c4.918,0,8.909,4.199,8.909,9.373
		C190.457,90.676,186.466,94.875,181.548,94.875z M249.504,94.875c-4.922,0-8.913-4.199-8.913-9.38c0-5.174,3.991-9.373,8.913-9.373
		c4.917,0,8.908,4.199,8.908,9.373C258.412,90.676,254.421,94.875,249.504,94.875z"/>
</g>
<g>
</g>
<g>
</g>
<g>
</g>
<g>
</g>
<g>
</g>
<g>
</g>
<g>
</g>
<g>
</g>
<g>
</g>
<g>
</g>
<g>
</g>
<g>
</g>
<g>
</g>
<g>
</g>
<g>
</g>
</svg>
