<?xml version="1.0" encoding="iso-8859-1"?>
<!-- Generator: Adobe Illustrator 18.1.1, SVG Export Plug-In . SVG Version: 6.00 Build 0)  -->
<svg version="1.1" id="Capa_1" xmlns="http://www.w3.org/2000/svg" xmlns:xlink="http://www.w3.org/1999/xlink" x="0px" y="0px"
	 viewBox="0 0 13.562 13.562" style="enable-background:new 0 0 13.562 13.562;" xml:space="preserve">
<g>
	<g>
		<path style="fill:#030104;" d="M10.715,4.313v0.136c0.029-0.018,0.053-0.032,0.057-0.036L10.715,4.313z"/>
		<path style="fill:#030104;" d="M5.899,1.157v0.089l-0.042,0.02c-0.12,1.774-0.561,2.881-1.308,3.29
			C4.32,4.681,4.088,4.727,3.871,4.727c-0.552,0-0.999-0.296-1.025-0.313v9.148h2.806l1.129-8.418l1.401,8.417h2.533V4.449
			c-0.139,0.082-0.516,0.278-0.968,0.278c-0.217,0-0.449-0.045-0.679-0.171C8.321,4.147,7.88,3.04,7.76,1.266l-0.044-0.02V1.157
			H5.899z"/>
		<path style="fill:#030104;" d="M7.719,0.253v0.904h0.389C8.219,2.803,8.623,3.862,9.274,4.22c0.685,0.375,1.446-0.125,1.453-0.13
			l0.078,0.134V1.157V0H2.758v0.253v0.904v3.167L2.894,4.09c0.007,0.005,0.768,0.505,1.454,0.13C4.998,3.862,5.4,2.803,5.512,1.157
			H5.9V0.253H7.719z"/>
	</g>
</g>
<g>
</g>
<g>
</g>
<g>
</g>
<g>
</g>
<g>
</g>
<g>
</g>
<g>
</g>
<g>
</g>
<g>
</g>
<g>
</g>
<g>
</g>
<g>
</g>
<g>
</g>
<g>
</g>
<g>
</g>
</svg>
