<?xml version="1.0" encoding="iso-8859-1"?>
<!-- Generator: Adobe Illustrator 16.0.0, SVG Export Plug-In . SVG Version: 6.00 Build 0)  -->
<!DOCTYPE svg PUBLIC "-//W3C//DTD SVG 1.1//EN" "http://www.w3.org/Graphics/SVG/1.1/DTD/svg11.dtd">
<svg version="1.1" id="Capa_1" xmlns="http://www.w3.org/2000/svg" xmlns:xlink="http://www.w3.org/1999/xlink" x="0px" y="0px"
	 width="483.669px" height="483.669px" viewBox="0 0 483.669 483.669" style="enable-background:new 0 0 483.669 483.669;"
	 xml:space="preserve">
<g>
	<g>
		<path d="M416.205,54.489C410.731,36.345,404.299,18.069,396.657,0L237.358,6.113c0,0-120.371-1.962-144.903-5.887
			c-21.189-3.392-25.537,32.713-28.23,49.582c66.194,12.074,131.746,9.534,198.937,12.553
			C312.365,64.577,369.434,74.67,416.205,54.489z"/>
		<path d="M263.162,74.137c-67.82-2.098-134.487-0.728-201.203-12.944c-2.027,11.932-2.955,30.899-9.744,41.088
			c-7.851,11.774-15.701,95.768-13.737,167.115c1.962,71.345-0.309,181.248-0.309,181.248s6.195,13.738,19.933,0
			c0,0,15.701,59.859,61.823-4.904c0,0,36.307,70.835,99.111,9.902c0,0,57.896,65.657,111.867-4.016c0,0,58.877,62.805,76.542-2.945
			c0,0,27.475,42.198,29.438,0.981c1.964-41.212,6.869-142.288,7.851-157.989c0.813-13.107,5.703-115.436-25.223-225.828
			C371.03,86.013,314.212,75.716,263.162,74.137z"/>
	</g>
</g>
<g>
</g>
<g>
</g>
<g>
</g>
<g>
</g>
<g>
</g>
<g>
</g>
<g>
</g>
<g>
</g>
<g>
</g>
<g>
</g>
<g>
</g>
<g>
</g>
<g>
</g>
<g>
</g>
<g>
</g>
</svg>
