<?xml version="1.0" encoding="iso-8859-1"?>
<!-- Generator: Adobe Illustrator 17.1.0, SVG Export Plug-In . SVG Version: 6.00 Build 0)  -->
<!DOCTYPE svg PUBLIC "-//W3C//DTD SVG 1.1//EN" "http://www.w3.org/Graphics/SVG/1.1/DTD/svg11.dtd">
<svg version="1.1" id="Capa_1" xmlns="http://www.w3.org/2000/svg" xmlns:xlink="http://www.w3.org/1999/xlink" x="0px" y="0px"
	 viewBox="0 0 205.155 205.155" style="enable-background:new 0 0 205.155 205.155;" xml:space="preserve">
<path d="M202.225,89.442c-0.108-0.083-10.846-8.584-18.063-26.783c-7.184-18.116-1.693-41.812-1.64-42.039
	c0.946-3.938-1.404-7.915-5.31-8.985L140.063,1.452c-0.514-0.14-1.037-0.22-1.56-0.25c-2.5-0.168-5,0.926-6.551,3.039
	c-0.704,0.625-6.875,5.458-28.89,5.458c-24.026,0-30.184-5.771-30.275-5.86c-0.559-0.659-1.227-1.229-1.992-1.666
	c-1.729-0.988-3.78-1.245-5.703-0.721L27.942,11.635c-3.897,1.068-6.245,5.043-5.312,8.975c0.056,0.237,5.546,23.933-1.638,42.049
	c-7.217,18.199-17.955,26.7-18.028,26.757C1.097,90.834,0,93.044,0,95.389v87.304c0,3.191,2.02,6.033,5.034,7.083l39.565,13.777
	c0.797,0.277,1.631,0.417,2.466,0.417c0.666,0,1.332-0.088,1.98-0.266l39.435-10.795c3.259-0.893,5.52-3.854,5.52-7.234v-6.901
	h16.722c0.146,0,0.289-0.014,0.433-0.022v6.923c0,3.379,2.26,6.341,5.52,7.234l39.435,10.795c0.649,0.178,1.315,0.266,1.98,0.266
	c0.835,0,1.669-0.14,2.466-0.417l39.564-13.777c3.014-1.05,5.034-3.892,5.034-7.083V95.389
	C205.155,93.075,204.051,90.863,202.225,89.442z M73.18,4.329l-0.007,0.005c-0.121-0.169-0.248-0.333-0.383-0.491
	C73.084,4.135,73.18,4.329,73.18,4.329z M110.722,163.773H94V80.169c0-0.665-0.088-1.326-0.263-1.967L78.533,22.251
	c6.035,1.44,14.007,2.448,24.529,2.448c10.033,0,17.686-0.935,23.521-2.303l-15.165,55.807c-0.174,0.641-0.263,1.302-0.263,1.967
	v83.626C111.011,163.786,110.868,163.773,110.722,163.773z"/>
<g>
</g>
<g>
</g>
<g>
</g>
<g>
</g>
<g>
</g>
<g>
</g>
<g>
</g>
<g>
</g>
<g>
</g>
<g>
</g>
<g>
</g>
<g>
</g>
<g>
</g>
<g>
</g>
<g>
</g>
</svg>
